# xmcd CD database file
#
# Track frame offsets:
#	150
#	16872
#	31177
#	48020
#	65572
#	79565
#	90675
#	104935
#	114807
#	123591
#	135728
#	151485
#	166977
#	183289
#	194606
#	208729
#	220828
#	236283
#	251585
#	263488
#	280826
#	290563
#
# Disc length: 4083 seconds
#
# Revision: 0
# Processed by: cddbd v1.5.2PL0 Copyright (c) Steve Scherf et al.
# Submitted via: CDex 1.70beta2
#
DISCID=340ff116
DTITLE=Premium Standard - Ballroom Elegance
DYEAR=2008
DGENRE=Ballroom
TTITLE0=Behind The Day (LW 28)
TTITLE1=May It Be (LW 29)
TTITLE2=Hear My Prayer (LW 29)
TTITLE3=Hace Mucho, Mucho Tiempo (LW 28)
TTITLE4=All The Way Home (LW 28)
TTITLE5=Che Buenos Aires (TA 32)
TTITLE6=Adios Nonino (TA 32)
TTITLE7=Mujer (TA 32)
TTITLE8=Mermoz Tango (TA 32)
TTITLE9=Some Time Later (WW 58)
TTITLE10=Theme from 'Beregis Avtomobilja' (WW 59)
TTITLE11=Mon Amant de Saint Jean (WW 59)
TTITLE12=Waltz No. 3 in A Minor (WW 58)
TTITLE13=Time After Time (SF 28)
TTITLE14=Make Someone Happy (SF 29)
TTITLE15=Have You Met Miss Jones (SF 29)
TTITLE16=I Can't Dance (SF 29)
TTITLE17=Tainted Love (SF 29)
TTITLE18=Heart of Glass (QU 50)
TTITLE19=They're Red Hot (QU 50)
TTITLE20=The Proposal (QU 50)
TTITLE21=Ibiza Swing (QU 51)
EXTD=YEAR: 2008
EXTT0=
EXTT1=
EXTT2=
EXTT3=
EXTT4=
EXTT5=
EXTT6=
EXTT7=
EXTT8=
EXTT9=
EXTT10=
EXTT11=
EXTT12=
EXTT13=
EXTT14=
EXTT15=
EXTT16=
EXTT17=
EXTT18=
EXTT19=
EXTT20=
EXTT21=
PLAYORDER=
